<svg width="16" height="16" viewBox="0 0 16 16" fill="none" xmlns="http://www.w3.org/2000/svg">
<path d="M10.6667 0.667969V3.33464V0.667969ZM5.33333 0.667969V3.33464V0.667969ZM14 7.33463C14 4.82064 14 3.5633 13.2187 2.78264C12.4373 2.00197 11.1807 2.0013 8.66667 2.0013H7.33333C4.81933 2.0013 3.562 2.0013 2.78133 2.78264C2.00067 3.56397 2 4.82064 2 7.33463V8.66797C2 11.182 2 12.4393 2.78133 13.22C3.56267 14.0006 4.81933 14.0013 7.33333 14.0013M2 6.0013H14H2Z" fill="#0755E9"/>
<path d="M12.178 11.802L11.3333 11.3346V10.1793M14 11.3346C14 12.0419 13.719 12.7202 13.219 13.2203C12.7189 13.7203 12.0406 14.0013 11.3333 14.0013C10.6261 14.0013 9.94781 13.7203 9.44772 13.2203C8.94762 12.7202 8.66667 12.0419 8.66667 11.3346C8.66667 10.6274 8.94762 9.94911 9.44772 9.44902C9.94781 8.94892 10.6261 8.66797 11.3333 8.66797C12.0406 8.66797 12.7189 8.94892 13.219 9.44902C13.719 9.94911 14 10.6274 14 11.3346Z" fill="#0755E9"/>
<path d="M10.6667 0.667969V3.33464M5.33333 0.667969V3.33464M14 7.33464C14 4.82064 14 3.5633 13.2187 2.78264C12.4373 2.00197 11.1807 2.0013 8.66667 2.0013H7.33333C4.81933 2.0013 3.562 2.0013 2.78133 2.78264C2.00067 3.56397 2 4.82064 2 7.33464V8.66797C2 11.182 2 12.4393 2.78133 13.22C3.56267 14.0006 4.81933 14.0013 7.33333 14.0013M2 6.0013H14M12.178 11.802L11.3333 11.3346V10.1793M14 11.3346C14 12.0419 13.719 12.7202 13.219 13.2203C12.7189 13.7203 12.0406 14.0013 11.3333 14.0013C10.6261 14.0013 9.94781 13.7203 9.44772 13.2203C8.94762 12.7202 8.66667 12.0419 8.66667 11.3346C8.66667 10.6274 8.94762 9.94911 9.44772 9.44902C9.94781 8.94892 10.6261 8.66797 11.3333 8.66797C12.0406 8.66797 12.7189 8.94892 13.219 9.44902C13.719 9.94911 14 10.6274 14 11.3346Z" stroke="#F7F7F7" stroke-width="1.2" stroke-linecap="round" stroke-linejoin="round"/>
</svg>
