<svg width="53" height="39" viewBox="0 0 53 39" fill="none" xmlns="http://www.w3.org/2000/svg">
<path d="M15.4804 0.606209C15.4391 0.647499 15.4082 4.61137 15.4185 9.41137C15.4185 18.0101 15.5011 20.5494 15.7694 20.6423C15.8314 20.663 15.9759 20.5907 16.0791 20.4978C16.1927 20.3946 16.5849 20.054 16.9565 19.7443C17.3282 19.4346 17.6482 19.1559 17.6791 19.1249C17.7101 19.094 17.9372 18.9081 18.1952 18.712C18.4533 18.5159 18.6804 18.3301 18.7114 18.2991C18.7423 18.2681 18.9694 18.0823 19.2275 17.8862C19.4856 17.6901 19.754 17.4733 19.8262 17.401C19.9088 17.3288 20.2804 17.0501 20.652 16.7817C21.034 16.5133 21.3643 16.2656 21.3952 16.2346C21.5811 16.0385 24.0585 14.4075 25.163 13.7572C27.0107 12.663 29.4056 11.5894 29.643 11.7443C29.7049 11.7752 29.7772 11.961 29.8082 12.1572C29.8391 12.3533 29.8804 12.6836 29.9114 12.8798C29.9836 13.3236 30.1694 13.3443 30.4069 12.9314C30.634 12.5598 31.1604 12.1675 31.3565 12.2501C31.5011 12.3017 31.4598 12.4152 30.7372 14.0152C30.6649 14.1804 30.4998 14.583 30.3759 14.8927C30.252 15.2023 30.0869 15.6152 30.0043 15.7907C29.9217 15.9765 29.7978 16.2862 29.7152 16.4617C29.3952 17.1946 28.012 21.4888 27.7952 22.4281C27.7436 22.6243 27.6301 23.0888 27.5372 23.4604C27.2998 24.4307 27.0107 25.6901 26.8662 26.4023C26.8043 26.743 26.7114 27.2075 26.6598 27.4346C26.6082 27.6617 26.5152 28.1469 26.4533 28.5185C26.3914 28.8901 26.2985 29.3959 26.2469 29.654C26.1643 30.0875 26.0714 30.7069 25.834 32.2552C25.7823 32.6165 25.6378 33.6281 25.5243 34.5056C25.4107 35.383 25.2662 36.4256 25.2146 36.8281C25.163 37.2204 25.0907 37.9017 25.0598 38.3249C24.9978 39.0062 25.0082 39.0785 25.1423 38.9443C25.2662 38.8204 26.0714 37.3133 27.4546 34.5881C27.8056 33.9069 27.8572 33.8759 28.5694 34.0514C30.8301 34.5778 33.9475 34.5778 36.0017 34.041C38.2004 33.4733 40.3682 32.4927 42.0611 31.3056C42.9178 30.7069 44.7656 28.983 45.292 28.312C45.4056 28.1675 45.643 27.8681 45.8288 27.641C46.314 27.0114 47.1811 25.5765 47.6249 24.6372C49.1527 21.3959 49.5862 17.401 48.7914 13.912C48.3785 12.1262 48.3785 12.1159 48.6985 11.5378C49.194 10.6398 50.3398 8.76105 50.474 8.61653C50.5462 8.54427 50.6082 8.44105 50.6082 8.38943C50.6082 8.33782 50.6701 8.2346 50.7423 8.16234C50.8146 8.09008 51.1656 7.58427 51.5372 7.0475C51.8985 6.51072 52.2598 6.00492 52.3217 5.94298C52.5488 5.70556 52.8998 5.07589 52.8378 5.01395C52.8069 4.97266 52.6727 5.0346 52.5385 5.14814C51.7849 5.81911 50.3294 7.11976 50.1952 7.25395C50.1127 7.33653 49.6482 7.75976 49.163 8.18298C48.6778 8.60621 48.2133 9.02943 48.1307 9.11202C48.0482 9.1946 47.7178 9.47331 47.4082 9.73137C47.0985 9.98943 46.7682 10.2681 46.6856 10.3507C46.603 10.4436 46.1798 10.8152 45.7565 11.1765C45.3333 11.5481 44.9617 11.8681 44.9307 11.8991C44.8998 11.9301 44.5798 12.2088 44.2082 12.5185C43.8365 12.8281 43.4649 13.1585 43.3823 13.241C43.2998 13.334 42.9694 13.6023 42.6598 13.8604C42.3501 14.1185 42.0714 14.3456 42.0404 14.3765C42.0094 14.4075 41.5036 14.8307 40.9049 15.3056C39.5527 16.3998 39.2533 16.6578 39.1501 16.8643C39.0262 17.0914 38.7372 19.352 38.5307 21.654C38.3552 23.5533 38.1282 29.1481 38.1901 29.7778C38.252 30.4281 38.1385 30.5623 37.8701 30.1391C37.4882 29.5507 36.4662 26.9701 35.692 24.6475C34.5875 21.334 34.1849 19.6823 33.7307 16.761C33.5449 15.5843 33.5243 12.8694 33.6894 12.7662C33.8236 12.6836 34.1023 13.0036 34.3501 13.5198C34.443 13.7056 34.5565 13.8604 34.5978 13.8604C34.6907 13.8604 34.9178 13.3443 35.1346 12.6217L35.2791 12.1572L37.7565 10.9185C41.0701 9.25653 45.034 6.84105 45.034 6.49008C45.034 6.25266 42.7423 4.13653 41.834 3.51718C40.1101 2.36105 37.7772 1.33911 36.0017 0.967499C35.723 0.915887 35.2275 0.802338 34.9178 0.740403C34.4946 0.637177 31.9965 0.595887 24.9565 0.564919C19.7849 0.544274 15.5217 0.564919 15.4804 0.606209ZM35.2275 3.74427C35.8778 3.80621 36.4559 3.89911 36.5075 3.95073C36.5694 4.01266 36.5282 4.21911 36.3836 4.50814C36.1565 4.96234 36.1462 4.97266 36.2701 7.58427L36.3836 10.1959L36.0533 10.4643C34.6185 11.6617 32.6675 11.9198 31.0572 11.1146C30.5204 10.8462 29.4985 9.7004 29.1578 8.98814C28.5694 7.74943 28.4765 6.92363 28.8275 5.98427C29.5191 4.14685 31.5836 3.42427 35.2275 3.74427ZM32.4404 15.6875C32.6469 17.6591 32.6262 21.1585 32.4094 22.4798C32.2236 23.6359 31.9656 24.8643 31.883 24.9881C31.8314 25.0707 30.5204 25.8656 29.994 26.134C29.612 26.3301 29.4985 26.2681 29.354 25.752C29.2817 25.4836 29.1888 25.1533 29.1372 25.0088C29.0959 24.8643 29.003 24.5546 28.9307 24.3172L28.7965 23.8836L29.4056 22.9752C30.1178 21.9223 30.5823 20.9933 30.923 19.9507C31.0985 19.414 31.4494 17.9894 31.594 17.1636C31.6559 16.854 31.7488 16.3481 31.8107 16.0488C31.8727 15.7391 31.9243 15.3985 31.9243 15.2746C31.9243 14.9546 32.1307 14.2733 32.2236 14.2733C32.2649 14.2733 32.3682 14.9133 32.4404 15.6875Z" fill="black"/>
<path d="M15.4804 0.606209C15.4391 0.647499 15.4082 4.61137 15.4185 9.41137C15.4185 18.0101 15.5011 20.5494 15.7694 20.6423C15.8314 20.663 15.9759 20.5907 16.0791 20.4978C16.1927 20.3946 16.5849 20.054 16.9565 19.7443C17.3282 19.4346 17.6482 19.1559 17.6791 19.1249C17.7101 19.094 17.9372 18.9081 18.1952 18.712C18.4533 18.5159 18.6804 18.3301 18.7114 18.2991C18.7423 18.2681 18.9694 18.0823 19.2275 17.8862C19.4856 17.6901 19.754 17.4733 19.8262 17.401C19.9088 17.3288 20.2804 17.0501 20.652 16.7817C21.034 16.5133 21.3643 16.2656 21.3952 16.2346C21.5811 16.0385 24.0585 14.4075 25.163 13.7572C27.0107 12.663 29.4056 11.5894 29.643 11.7443C29.7049 11.7752 29.7772 11.961 29.8082 12.1572C29.8391 12.3533 29.8804 12.6836 29.9114 12.8798C29.9836 13.3236 30.1694 13.3443 30.4069 12.9314C30.634 12.5598 31.1604 12.1675 31.3565 12.2501C31.5011 12.3017 31.4598 12.4152 30.7372 14.0152C30.6649 14.1804 30.4998 14.583 30.3759 14.8927C30.252 15.2023 30.0869 15.6152 30.0043 15.7907C29.9217 15.9765 29.7978 16.2862 29.7152 16.4617C29.3952 17.1946 28.012 21.4888 27.7952 22.4281C27.7436 22.6243 27.6301 23.0888 27.5372 23.4604C27.2998 24.4307 27.0107 25.6901 26.8662 26.4023C26.8043 26.743 26.7114 27.2075 26.6598 27.4346C26.6082 27.6617 26.5152 28.1469 26.4533 28.5185C26.3914 28.8901 26.2985 29.3959 26.2469 29.654C26.1643 30.0875 26.0714 30.7069 25.834 32.2552C25.7823 32.6165 25.6378 33.6281 25.5243 34.5056C25.4107 35.383 25.2662 36.4256 25.2146 36.8281C25.163 37.2204 25.0907 37.9017 25.0598 38.3249C24.9978 39.0062 25.0082 39.0785 25.1423 38.9443C25.2662 38.8204 26.0714 37.3133 27.4546 34.5881C27.8056 33.9069 27.8572 33.8759 28.5694 34.0514C30.8301 34.5778 33.9475 34.5778 36.0017 34.041C38.2004 33.4733 40.3682 32.4927 42.0611 31.3056C42.9178 30.7069 44.7656 28.983 45.292 28.312C45.4056 28.1675 45.643 27.8681 45.8288 27.641C46.314 27.0114 47.1811 25.5765 47.6249 24.6372C49.1527 21.3959 49.5862 17.401 48.7914 13.912C48.3785 12.1262 48.3785 12.1159 48.6985 11.5378C49.194 10.6398 50.3398 8.76105 50.474 8.61653C50.5462 8.54427 50.6082 8.44105 50.6082 8.38943C50.6082 8.33782 50.6701 8.2346 50.7423 8.16234C50.8146 8.09008 51.1656 7.58427 51.5372 7.0475C51.8985 6.51072 52.2598 6.00492 52.3217 5.94298C52.5488 5.70556 52.8998 5.07589 52.8378 5.01395C52.8069 4.97266 52.6727 5.0346 52.5385 5.14814C51.7849 5.81911 50.3294 7.11976 50.1952 7.25395C50.1127 7.33653 49.6482 7.75976 49.163 8.18298C48.6778 8.60621 48.2133 9.02943 48.1307 9.11202C48.0482 9.1946 47.7178 9.47331 47.4082 9.73137C47.0985 9.98943 46.7682 10.2681 46.6856 10.3507C46.603 10.4436 46.1798 10.8152 45.7565 11.1765C45.3333 11.5481 44.9617 11.8681 44.9307 11.8991C44.8998 11.9301 44.5798 12.2088 44.2082 12.5185C43.8365 12.8281 43.4649 13.1585 43.3823 13.241C43.2998 13.334 42.9694 13.6023 42.6598 13.8604C42.3501 14.1185 42.0714 14.3456 42.0404 14.3765C42.0094 14.4075 41.5036 14.8307 40.9049 15.3056C39.5527 16.3998 39.2533 16.6578 39.1501 16.8643C39.0262 17.0914 38.7372 19.352 38.5307 21.654C38.3552 23.5533 38.1282 29.1481 38.1901 29.7778C38.252 30.4281 38.1385 30.5623 37.8701 30.1391C37.4882 29.5507 36.4662 26.9701 35.692 24.6475C34.5875 21.334 34.1849 19.6823 33.7307 16.761C33.5449 15.5843 33.5243 12.8694 33.6894 12.7662C33.8236 12.6836 34.1023 13.0036 34.3501 13.5198C34.443 13.7056 34.5565 13.8604 34.5978 13.8604C34.6907 13.8604 34.9178 13.3443 35.1346 12.6217L35.2791 12.1572L37.7565 10.9185C41.0701 9.25653 45.034 6.84105 45.034 6.49008C45.034 6.25266 42.7423 4.13653 41.834 3.51718C40.1101 2.36105 37.7772 1.33911 36.0017 0.967499C35.723 0.915887 35.2275 0.802338 34.9178 0.740403C34.4946 0.637177 31.9965 0.595887 24.9565 0.564919C19.7849 0.544274 15.5217 0.564919 15.4804 0.606209ZM35.2275 3.74427C35.8778 3.80621 36.4559 3.89911 36.5075 3.95073C36.5694 4.01266 36.5282 4.21911 36.3836 4.50814C36.1565 4.96234 36.1462 4.97266 36.2701 7.58427L36.3836 10.1959L36.0533 10.4643C34.6185 11.6617 32.6675 11.9198 31.0572 11.1146C30.5204 10.8462 29.4985 9.7004 29.1578 8.98814C28.5694 7.74943 28.4765 6.92363 28.8275 5.98427C29.5191 4.14685 31.5836 3.42427 35.2275 3.74427ZM32.4404 15.6875C32.6469 17.6591 32.6262 21.1585 32.4094 22.4798C32.2236 23.6359 31.9656 24.8643 31.883 24.9881C31.8314 25.0707 30.5204 25.8656 29.994 26.134C29.612 26.3301 29.4985 26.2681 29.354 25.752C29.2817 25.4836 29.1888 25.1533 29.1372 25.0088C29.0959 24.8643 29.003 24.5546 28.9307 24.3172L28.7965 23.8836L29.4056 22.9752C30.1178 21.9223 30.5823 20.9933 30.923 19.9507C31.0985 19.414 31.4494 17.9894 31.594 17.1636C31.6559 16.854 31.7488 16.3481 31.8107 16.0488C31.8727 15.7391 31.9243 15.3985 31.9243 15.2746C31.9243 14.9546 32.1307 14.2733 32.2236 14.2733C32.2649 14.2733 32.3682 14.9133 32.4404 15.6875Z" fill="#0755E9"/>
<path d="M15.4804 0.606209C15.4391 0.647499 15.4082 4.61137 15.4185 9.41137C15.4185 18.0101 15.5011 20.5494 15.7694 20.6423C15.8314 20.663 15.9759 20.5907 16.0791 20.4978C16.1927 20.3946 16.5849 20.054 16.9565 19.7443C17.3282 19.4346 17.6482 19.1559 17.6791 19.1249C17.7101 19.094 17.9372 18.9081 18.1952 18.712C18.4533 18.5159 18.6804 18.3301 18.7114 18.2991C18.7423 18.2681 18.9694 18.0823 19.2275 17.8862C19.4856 17.6901 19.754 17.4733 19.8262 17.401C19.9088 17.3288 20.2804 17.0501 20.652 16.7817C21.034 16.5133 21.3643 16.2656 21.3952 16.2346C21.5811 16.0385 24.0585 14.4075 25.163 13.7572C27.0107 12.663 29.4056 11.5894 29.643 11.7443C29.7049 11.7752 29.7772 11.961 29.8082 12.1572C29.8391 12.3533 29.8804 12.6836 29.9114 12.8798C29.9836 13.3236 30.1694 13.3443 30.4069 12.9314C30.634 12.5598 31.1604 12.1675 31.3565 12.2501C31.5011 12.3017 31.4598 12.4152 30.7372 14.0152C30.6649 14.1804 30.4998 14.583 30.3759 14.8927C30.252 15.2023 30.0869 15.6152 30.0043 15.7907C29.9217 15.9765 29.7978 16.2862 29.7152 16.4617C29.3952 17.1946 28.012 21.4888 27.7952 22.4281C27.7436 22.6243 27.6301 23.0888 27.5372 23.4604C27.2998 24.4307 27.0107 25.6901 26.8662 26.4023C26.8043 26.743 26.7114 27.2075 26.6598 27.4346C26.6082 27.6617 26.5152 28.1469 26.4533 28.5185C26.3914 28.8901 26.2985 29.3959 26.2469 29.654C26.1643 30.0875 26.0714 30.7069 25.834 32.2552C25.7823 32.6165 25.6378 33.6281 25.5243 34.5056C25.4107 35.383 25.2662 36.4256 25.2146 36.8281C25.163 37.2204 25.0907 37.9017 25.0598 38.3249C24.9978 39.0062 25.0082 39.0785 25.1423 38.9443C25.2662 38.8204 26.0714 37.3133 27.4546 34.5881C27.8056 33.9069 27.8572 33.8759 28.5694 34.0514C30.8301 34.5778 33.9475 34.5778 36.0017 34.041C38.2004 33.4733 40.3682 32.4927 42.0611 31.3056C42.9178 30.7069 44.7656 28.983 45.292 28.312C45.4056 28.1675 45.643 27.8681 45.8288 27.641C46.314 27.0114 47.1811 25.5765 47.6249 24.6372C49.1527 21.3959 49.5862 17.401 48.7914 13.912C48.3785 12.1262 48.3785 12.1159 48.6985 11.5378C49.194 10.6398 50.3398 8.76105 50.474 8.61653C50.5462 8.54427 50.6082 8.44105 50.6082 8.38943C50.6082 8.33782 50.6701 8.2346 50.7423 8.16234C50.8146 8.09008 51.1656 7.58427 51.5372 7.0475C51.8985 6.51072 52.2598 6.00492 52.3217 5.94298C52.5488 5.70556 52.8998 5.07589 52.8378 5.01395C52.8069 4.97266 52.6727 5.0346 52.5385 5.14814C51.7849 5.81911 50.3294 7.11976 50.1952 7.25395C50.1127 7.33653 49.6482 7.75976 49.163 8.18298C48.6778 8.60621 48.2133 9.02943 48.1307 9.11202C48.0482 9.1946 47.7178 9.47331 47.4082 9.73137C47.0985 9.98943 46.7682 10.2681 46.6856 10.3507C46.603 10.4436 46.1798 10.8152 45.7565 11.1765C45.3333 11.5481 44.9617 11.8681 44.9307 11.8991C44.8998 11.9301 44.5798 12.2088 44.2082 12.5185C43.8365 12.8281 43.4649 13.1585 43.3823 13.241C43.2998 13.334 42.9694 13.6023 42.6598 13.8604C42.3501 14.1185 42.0714 14.3456 42.0404 14.3765C42.0094 14.4075 41.5036 14.8307 40.9049 15.3056C39.5527 16.3998 39.2533 16.6578 39.1501 16.8643C39.0262 17.0914 38.7372 19.352 38.5307 21.654C38.3552 23.5533 38.1282 29.1481 38.1901 29.7778C38.252 30.4281 38.1385 30.5623 37.8701 30.1391C37.4882 29.5507 36.4662 26.9701 35.692 24.6475C34.5875 21.334 34.1849 19.6823 33.7307 16.761C33.5449 15.5843 33.5243 12.8694 33.6894 12.7662C33.8236 12.6836 34.1023 13.0036 34.3501 13.5198C34.443 13.7056 34.5565 13.8604 34.5978 13.8604C34.6907 13.8604 34.9178 13.3443 35.1346 12.6217L35.2791 12.1572L37.7565 10.9185C41.0701 9.25653 45.034 6.84105 45.034 6.49008C45.034 6.25266 42.7423 4.13653 41.834 3.51718C40.1101 2.36105 37.7772 1.33911 36.0017 0.967499C35.723 0.915887 35.2275 0.802338 34.9178 0.740403C34.4946 0.637177 31.9965 0.595887 24.9565 0.564919C19.7849 0.544274 15.5217 0.564919 15.4804 0.606209ZM35.2275 3.74427C35.8778 3.80621 36.4559 3.89911 36.5075 3.95073C36.5694 4.01266 36.5282 4.21911 36.3836 4.50814C36.1565 4.96234 36.1462 4.97266 36.2701 7.58427L36.3836 10.1959L36.0533 10.4643C34.6185 11.6617 32.6675 11.9198 31.0572 11.1146C30.5204 10.8462 29.4985 9.7004 29.1578 8.98814C28.5694 7.74943 28.4765 6.92363 28.8275 5.98427C29.5191 4.14685 31.5836 3.42427 35.2275 3.74427ZM32.4404 15.6875C32.6469 17.6591 32.6262 21.1585 32.4094 22.4798C32.2236 23.6359 31.9656 24.8643 31.883 24.9881C31.8314 25.0707 30.5204 25.8656 29.994 26.134C29.612 26.3301 29.4985 26.2681 29.354 25.752C29.2817 25.4836 29.1888 25.1533 29.1372 25.0088C29.0959 24.8643 29.003 24.5546 28.9307 24.3172L28.7965 23.8836L29.4056 22.9752C30.1178 21.9223 30.5823 20.9933 30.923 19.9507C31.0985 19.414 31.4494 17.9894 31.594 17.1636C31.6559 16.854 31.7488 16.3481 31.8107 16.0488C31.8727 15.7391 31.9243 15.3985 31.9243 15.2746C31.9243 14.9546 32.1307 14.2733 32.2236 14.2733C32.2649 14.2733 32.3682 14.9133 32.4404 15.6875Z" fill="url(#paint0_linear_1125_390)"/>
<path d="M34.763 9.02941C33.5759 9.24619 33.4417 9.40102 34.1023 9.73135C34.3707 9.87586 34.6185 9.92748 34.7836 9.89651C35.0933 9.81393 35.6404 9.2978 35.6404 9.0707C35.6404 8.8849 35.5475 8.8849 34.763 9.02941Z" fill="black"/>
<path d="M34.763 9.02941C33.5759 9.24619 33.4417 9.40102 34.1023 9.73135C34.3707 9.87586 34.6185 9.92748 34.7836 9.89651C35.0933 9.81393 35.6404 9.2978 35.6404 9.0707C35.6404 8.8849 35.5475 8.8849 34.763 9.02941Z" fill="#0755E9"/>
<path d="M34.763 9.02941C33.5759 9.24619 33.4417 9.40102 34.1023 9.73135C34.3707 9.87586 34.6185 9.92748 34.7836 9.89651C35.0933 9.81393 35.6404 9.2978 35.6404 9.0707C35.6404 8.8849 35.5475 8.8849 34.763 9.02941Z" fill="url(#paint1_linear_1125_390)"/>
<path d="M22.892 19.7753C20.9307 20.8179 20.5488 21.0347 18.2469 22.3663C17.0804 23.0372 16.3372 23.5637 16.3372 23.7082C16.3372 23.894 17.2765 25.7727 17.3901 25.814C17.4314 25.8347 17.4727 25.8966 17.4727 25.9585C17.4727 26.0514 18.0611 26.9701 18.1953 27.0734C18.2262 27.1043 18.3707 27.2901 18.5049 27.4863C19.372 28.7353 22.3036 31.5121 22.7475 31.5121C22.7785 31.5121 22.8404 30.7792 22.8817 29.8811C23.0159 26.6089 23.3772 23.285 23.8727 20.8282C24.0482 19.9405 24.1101 19.2282 24.0172 19.2282C23.9656 19.2282 23.4598 19.476 22.892 19.7753Z" fill="black"/>
<path d="M22.892 19.7753C20.9307 20.8179 20.5488 21.0347 18.2469 22.3663C17.0804 23.0372 16.3372 23.5637 16.3372 23.7082C16.3372 23.894 17.2765 25.7727 17.3901 25.814C17.4314 25.8347 17.4727 25.8966 17.4727 25.9585C17.4727 26.0514 18.0611 26.9701 18.1953 27.0734C18.2262 27.1043 18.3707 27.2901 18.5049 27.4863C19.372 28.7353 22.3036 31.5121 22.7475 31.5121C22.7785 31.5121 22.8404 30.7792 22.8817 29.8811C23.0159 26.6089 23.3772 23.285 23.8727 20.8282C24.0482 19.9405 24.1101 19.2282 24.0172 19.2282C23.9656 19.2282 23.4598 19.476 22.892 19.7753Z" fill="#0755E9"/>
<path d="M22.892 19.7753C20.9307 20.8179 20.5488 21.0347 18.2469 22.3663C17.0804 23.0372 16.3372 23.5637 16.3372 23.7082C16.3372 23.894 17.2765 25.7727 17.3901 25.814C17.4314 25.8347 17.4727 25.8966 17.4727 25.9585C17.4727 26.0514 18.0611 26.9701 18.1953 27.0734C18.2262 27.1043 18.3707 27.2901 18.5049 27.4863C19.372 28.7353 22.3036 31.5121 22.7475 31.5121C22.7785 31.5121 22.8404 30.7792 22.8817 29.8811C23.0159 26.6089 23.3772 23.285 23.8727 20.8282C24.0482 19.9405 24.1101 19.2282 24.0172 19.2282C23.9656 19.2282 23.4598 19.476 22.892 19.7753Z" fill="url(#paint2_linear_1125_390)"/>
<path d="M7.30494 21.0553C7.07784 21.2721 6.75784 21.5508 6.603 21.6746C6.43784 21.7985 5.93203 22.2424 5.46752 22.6553C5.01332 23.0682 4.42494 23.5946 4.16687 23.8217C3.90881 24.0488 3.67139 24.2553 3.64042 24.2863C3.60945 24.3172 3.28945 24.5959 2.92816 24.9056C2.55655 25.2153 2.07139 25.6488 1.84429 25.8759C1.60687 26.0927 1.26623 26.3921 1.09074 26.5366C0.904938 26.6708 0.750099 26.8359 0.750099 26.8979C0.750099 26.9598 1.03913 27.3108 1.40042 27.6824C2.47397 28.8282 4.70365 31.223 5.25074 31.8217C5.52945 32.1314 6.12816 32.7817 6.59268 33.2669C7.04687 33.7521 7.67655 34.423 7.99655 34.7637C9.91655 36.8488 9.67913 36.7353 10.474 36.0024C11.0624 35.4553 12.9617 33.7417 13.5501 33.2153C14.0043 32.8024 15.1501 31.7495 15.563 31.3572C15.6869 31.2437 16.0688 30.8927 16.4198 30.5934C16.7707 30.2837 17.0598 29.9946 17.0598 29.943C17.0598 29.8914 16.4611 29.2514 15.7178 28.5185C14.9849 27.7856 14.3759 27.1353 14.3759 27.0837C14.3759 27.0114 15.1914 26.3714 16.3165 25.5766L16.5436 25.4114L15.3875 24.1624C12.9514 21.5714 12.7449 21.3753 12.5488 21.4888C12.4456 21.5508 11.9914 21.943 11.5372 22.3663C11.083 22.7998 10.6495 23.1508 10.5669 23.1508C10.4843 23.1508 9.88558 22.5934 9.24558 21.9121C8.59526 21.2308 7.98623 20.6734 7.89332 20.6734C7.7901 20.6734 7.53203 20.8488 7.30494 21.0553ZM13.8288 24.1314C14.4172 24.7301 14.892 25.2359 14.892 25.2669C14.892 25.3392 13.6533 26.2475 13.5501 26.2475C13.3643 26.2475 11.5372 24.2759 11.5372 24.0798C11.5372 23.9043 12.4662 23.0579 12.6727 23.0475C12.7243 23.0475 13.2507 23.5327 13.8288 24.1314Z" fill="black"/>
<path d="M7.30494 21.0553C7.07784 21.2721 6.75784 21.5508 6.603 21.6746C6.43784 21.7985 5.93203 22.2424 5.46752 22.6553C5.01332 23.0682 4.42494 23.5946 4.16687 23.8217C3.90881 24.0488 3.67139 24.2553 3.64042 24.2863C3.60945 24.3172 3.28945 24.5959 2.92816 24.9056C2.55655 25.2153 2.07139 25.6488 1.84429 25.8759C1.60687 26.0927 1.26623 26.3921 1.09074 26.5366C0.904938 26.6708 0.750099 26.8359 0.750099 26.8979C0.750099 26.9598 1.03913 27.3108 1.40042 27.6824C2.47397 28.8282 4.70365 31.223 5.25074 31.8217C5.52945 32.1314 6.12816 32.7817 6.59268 33.2669C7.04687 33.7521 7.67655 34.423 7.99655 34.7637C9.91655 36.8488 9.67913 36.7353 10.474 36.0024C11.0624 35.4553 12.9617 33.7417 13.5501 33.2153C14.0043 32.8024 15.1501 31.7495 15.563 31.3572C15.6869 31.2437 16.0688 30.8927 16.4198 30.5934C16.7707 30.2837 17.0598 29.9946 17.0598 29.943C17.0598 29.8914 16.4611 29.2514 15.7178 28.5185C14.9849 27.7856 14.3759 27.1353 14.3759 27.0837C14.3759 27.0114 15.1914 26.3714 16.3165 25.5766L16.5436 25.4114L15.3875 24.1624C12.9514 21.5714 12.7449 21.3753 12.5488 21.4888C12.4456 21.5508 11.9914 21.943 11.5372 22.3663C11.083 22.7998 10.6495 23.1508 10.5669 23.1508C10.4843 23.1508 9.88558 22.5934 9.24558 21.9121C8.59526 21.2308 7.98623 20.6734 7.89332 20.6734C7.7901 20.6734 7.53203 20.8488 7.30494 21.0553ZM13.8288 24.1314C14.4172 24.7301 14.892 25.2359 14.892 25.2669C14.892 25.3392 13.6533 26.2475 13.5501 26.2475C13.3643 26.2475 11.5372 24.2759 11.5372 24.0798C11.5372 23.9043 12.4662 23.0579 12.6727 23.0475C12.7243 23.0475 13.2507 23.5327 13.8288 24.1314Z" fill="#0755E9"/>
<path d="M7.30494 21.0553C7.07784 21.2721 6.75784 21.5508 6.603 21.6746C6.43784 21.7985 5.93203 22.2424 5.46752 22.6553C5.01332 23.0682 4.42494 23.5946 4.16687 23.8217C3.90881 24.0488 3.67139 24.2553 3.64042 24.2863C3.60945 24.3172 3.28945 24.5959 2.92816 24.9056C2.55655 25.2153 2.07139 25.6488 1.84429 25.8759C1.60687 26.0927 1.26623 26.3921 1.09074 26.5366C0.904938 26.6708 0.750099 26.8359 0.750099 26.8979C0.750099 26.9598 1.03913 27.3108 1.40042 27.6824C2.47397 28.8282 4.70365 31.223 5.25074 31.8217C5.52945 32.1314 6.12816 32.7817 6.59268 33.2669C7.04687 33.7521 7.67655 34.423 7.99655 34.7637C9.91655 36.8488 9.67913 36.7353 10.474 36.0024C11.0624 35.4553 12.9617 33.7417 13.5501 33.2153C14.0043 32.8024 15.1501 31.7495 15.563 31.3572C15.6869 31.2437 16.0688 30.8927 16.4198 30.5934C16.7707 30.2837 17.0598 29.9946 17.0598 29.943C17.0598 29.8914 16.4611 29.2514 15.7178 28.5185C14.9849 27.7856 14.3759 27.1353 14.3759 27.0837C14.3759 27.0114 15.1914 26.3714 16.3165 25.5766L16.5436 25.4114L15.3875 24.1624C12.9514 21.5714 12.7449 21.3753 12.5488 21.4888C12.4456 21.5508 11.9914 21.943 11.5372 22.3663C11.083 22.7998 10.6495 23.1508 10.5669 23.1508C10.4843 23.1508 9.88558 22.5934 9.24558 21.9121C8.59526 21.2308 7.98623 20.6734 7.89332 20.6734C7.7901 20.6734 7.53203 20.8488 7.30494 21.0553ZM13.8288 24.1314C14.4172 24.7301 14.892 25.2359 14.892 25.2669C14.892 25.3392 13.6533 26.2475 13.5501 26.2475C13.3643 26.2475 11.5372 24.2759 11.5372 24.0798C11.5372 23.9043 12.4662 23.0579 12.6727 23.0475C12.7243 23.0475 13.2507 23.5327 13.8288 24.1314Z" fill="url(#paint3_linear_1125_390)"/>
<defs>
<linearGradient id="paint0_linear_1125_390" x1="28.7402" y1="26.506" x2="67.1901" y2="22.6363" gradientUnits="userSpaceOnUse">
<stop stop-color="#1B67F8"/>
<stop offset="1" stop-color="#043083"/>
</linearGradient>
<linearGradient id="paint1_linear_1125_390" x1="34.3955" y1="9.58683" x2="36.3212" y2="9.19396" gradientUnits="userSpaceOnUse">
<stop stop-color="#1B67F8"/>
<stop offset="1" stop-color="#043083"/>
</linearGradient>
<linearGradient id="paint2_linear_1125_390" x1="19.0864" y1="27.5198" x2="27.0668" y2="27.0012" gradientUnits="userSpaceOnUse">
<stop stop-color="#1B67F8"/>
<stop offset="1" stop-color="#043083"/>
</linearGradient>
<linearGradient id="paint3_linear_1125_390" x1="6.55599" y1="31.3453" x2="23.2901" y2="29.5608" gradientUnits="userSpaceOnUse">
<stop stop-color="#1B67F8"/>
<stop offset="1" stop-color="#043083"/>
</linearGradient>
</defs>
</svg>
