<svg width="13" height="13" viewBox="0 0 13 13" fill="none" xmlns="http://www.w3.org/2000/svg">
<path d="M4.56509 8.06876H6.87851C7.38746 8.06876 7.80388 7.66282 7.80388 7.16667C7.80388 6.67051 7.38746 6.26457 6.87851 6.26457H5.95314C5.44419 6.26457 5.02778 5.85862 5.02778 5.36247C5.02778 4.86632 5.44419 4.46037 5.95314 4.46037H8.26656M6.41583 3.10723V4.15997M6.41583 7.61772V9.42191M12.4307 6.26457C12.4307 7.8197 11.797 9.31114 10.669 10.4108C9.54099 11.5104 8.01108 12.1282 6.41583 12.1282C4.82058 12.1282 3.29067 11.5104 2.16266 10.4108C1.03465 9.31114 0.40094 7.8197 0.40094 6.26457C0.40094 4.70944 1.03465 3.218 2.16266 2.11835C3.29067 1.01871 4.82058 0.400932 6.41583 0.400932C8.01108 0.400932 9.54099 1.01871 10.669 2.11835C11.797 3.218 12.4307 4.70944 12.4307 6.26457Z" stroke="#0755E9" stroke-width="0.801865" stroke-miterlimit="10" stroke-linejoin="round"/>
</svg>
