<svg width="12" height="12" viewBox="0 0 12 12" fill="none" xmlns="http://www.w3.org/2000/svg">
<path d="M3.29499 0.592888C4.91681 -0.197631 6.81223 -0.19763 8.43405 0.592889L8.51881 0.634204C10.4829 1.59156 11.729 3.58523 11.729 5.77022C11.729 7.95717 10.4807 9.95227 8.51394 10.9086L8.42906 10.9499C6.81 11.7372 4.91904 11.7372 3.29998 10.9499L3.21509 10.9086C1.24833 9.95227 0 7.95717 0 5.77022C0 3.58523 1.24613 1.59156 3.21022 0.634203L3.29499 0.592888ZM8.87475 3.1511C9.44059 2.87641 9.44099 2.0704 8.87541 1.79516L6.19065 0.488628C5.98474 0.388426 5.74423 0.388305 5.53823 0.4883C4.97961 0.759457 4.9772 1.55446 5.53416 1.829L8.21228 3.1491C8.42096 3.25196 8.66545 3.2527 8.87475 3.1511ZM5.54403 4.46174C5.74641 4.56023 5.98277 4.56054 6.18543 4.4626C6.73672 4.19614 6.73951 3.41189 6.19012 3.14152L3.48303 1.80928C3.27782 1.70829 3.03749 1.70764 2.83174 1.80752C2.27505 2.07774 2.27465 2.8707 2.83107 3.14148L5.54403 4.46174ZM4.1461 4.76959C2.6478 4.03928 0.902233 5.13033 0.902233 6.79714V7.38571C0.902233 8.24828 1.39417 9.03533 2.16953 9.41326C3.66784 10.1436 5.4134 9.05252 5.4134 7.38571V6.79714C5.4134 5.93457 4.92147 5.14752 4.1461 4.76959ZM6.31563 7.38571C6.31563 9.05252 8.0612 10.1436 9.5595 9.41326C10.3349 9.03533 10.8268 8.24828 10.8268 7.38571V6.79714C10.8268 5.13033 9.08124 4.03928 7.58294 4.76959C6.80757 5.14752 6.31563 5.93457 6.31563 6.79714V7.38571Z" fill="#0755E9"/>
</svg>
