<svg width="13" height="12" viewBox="0 0 13 12" fill="none" xmlns="http://www.w3.org/2000/svg">
<path fill-rule="evenodd" clip-rule="evenodd" d="M6.37578 4.61962C6.37578 5.22871 6.62175 5.81199 7.05789 6.23717L8.45465 7.59881C8.59802 7.73857 8.59809 7.96901 8.4548 8.10886C8.31646 8.24387 8.0957 8.24394 7.95728 8.109L6.40122 6.59207C5.92344 6.12631 5.65399 5.48734 5.65399 4.8201V2.70635C5.65399 2.50703 5.81557 2.34545 6.01489 2.34545C6.2142 2.34545 6.37578 2.50703 6.37578 2.70635V4.61962ZM6.01489 11.7273C2.69287 11.7273 0 9.10212 0 5.86364C0 2.62515 2.69287 0 6.01489 0C9.33691 0 12.0298 2.62515 12.0298 5.86364C12.0298 9.10212 9.33691 11.7273 6.01489 11.7273ZM6.01489 11.0236C7.41871 11.0236 8.76503 10.48 9.75768 9.51231C10.7503 8.54462 11.308 7.23215 11.308 5.86364C11.308 4.49512 10.7503 3.18265 9.75768 2.21497C8.76503 1.24728 7.41871 0.703636 6.01489 0.703636C4.61107 0.703636 3.26475 1.24728 2.2721 2.21497C1.27945 3.18265 0.721787 4.49512 0.721787 5.86364C0.721787 7.23215 1.27945 8.54462 2.2721 9.51231C3.26475 10.48 4.61107 11.0236 6.01489 11.0236Z" fill="#0755E9"/>
</svg>
