<svg width="14" height="12" viewBox="0 0 14 12" fill="none" xmlns="http://www.w3.org/2000/svg">
<path d="M9.51862 2.78488C9.84114 2.62669 10.2187 2.62635 10.5415 2.78397L11.7516 3.37484C13.0962 4.03136 13.949 5.39682 13.949 6.89312V7.19135C13.949 8.69199 13.0917 10.0624 11.7432 10.7208C10.6625 11.2485 9.39768 11.2514 8.31512 10.7274L6.64542 9.91921C6.31423 9.7589 6.10385 9.42334 6.10385 9.05539C6.10385 8.34723 5.36312 7.88298 4.7258 8.19169L4.43057 8.33469C4.10984 8.49004 3.73566 8.49009 3.41488 8.33482L2.21334 7.75323C0.858132 7.09725 -0.00195228 5.72339 1.76895e-05 4.21777L0.000410931 3.91722C0.00236982 2.42007 0.856427 1.05462 2.20177 0.397719C3.28782 -0.132573 4.5577 -0.132572 5.64375 0.397719L7.30484 1.20878C7.63365 1.36934 7.84265 1.70279 7.84382 2.0687C7.84609 2.77807 8.59019 3.24025 9.22708 2.92787L9.51862 2.78488ZM10.5103 5.69531C11.3327 5.29442 11.3315 4.12198 10.5082 3.72285C10.2061 3.57641 9.85356 3.57641 9.55147 3.72285C8.72815 4.12198 8.7269 5.29442 9.54936 5.69531C9.85261 5.84312 10.207 5.84312 10.5103 5.69531ZM4.40322 2.71856C5.22569 2.31767 5.22443 1.14523 4.40111 0.746108C4.09902 0.599662 3.7465 0.599662 3.44441 0.746108C2.62109 1.14523 2.61984 2.31767 3.4423 2.71856C3.74555 2.86638 4.09997 2.86638 4.40322 2.71856ZM2.75091 3.33266C1.88364 2.91104 0.874 3.54154 0.872237 4.50587L0.870734 5.32774C0.869816 5.82973 1.1563 6.28796 1.60799 6.50698C2.4766 6.92816 3.48654 6.29546 3.48654 5.33013V4.50825C3.48654 4.00789 3.20091 3.55143 2.75091 3.33266ZM4.35898 6.02377C4.35898 6.66923 5.03344 7.09296 5.61494 6.81282C5.918 6.66683 6.11067 6.36016 6.11067 6.02377V4.9274C6.11067 4.6341 6.27842 4.36665 6.54246 4.23896L6.56551 4.22781C6.81652 4.10643 6.97554 3.8517 6.97436 3.57288C6.9721 3.03947 6.41342 2.69152 5.93369 2.92474L5.09603 3.33197C4.64516 3.55117 4.35898 4.0085 4.35898 4.50983V6.02377ZM8.85797 6.30941C7.9907 5.88778 6.98106 6.51829 6.97929 7.48261L6.97779 8.30448C6.97687 8.80648 7.26336 9.2647 7.71505 9.48373C8.58366 9.9049 9.5936 9.27221 9.5936 8.30687V7.485C9.5936 6.98464 9.30797 6.52818 8.85797 6.30941ZM10.466 8.30397C10.466 9.26909 11.4773 9.90043 12.3444 9.47667C12.7924 9.25772 13.0765 8.80263 13.0765 8.30396V7.48381C13.0765 6.51985 12.0675 5.88846 11.2006 6.30993C10.7513 6.52838 10.466 6.98417 10.466 7.48381V8.30397Z" fill="#0755E9"/>
</svg>
